<svg xmlns="http://www.w3.org/2000/svg" viewBox="0 0 512 512">
  <defs>
    <linearGradient id="navyGrad" x1="0%" y1="0%" x2="0%" y2="100%">
      <stop offset="0%" style="stop-color:#1e3a5f"/>
      <stop offset="100%" style="stop-color:#0f172a"/>
    </linearGradient>
    <linearGradient id="orangeGrad" x1="0%" y1="0%" x2="100%" y2="100%">
      <stop offset="0%" style="stop-color:#f97316"/>
      <stop offset="100%" style="stop-color:#fb923c"/>
    </linearGradient>
  </defs>
  <!-- Background circle -->
  <circle cx="256" cy="256" r="256" fill="#0f172a"/>
  <!-- Shield -->
  <path d="M 256 50 L 430 100 L 430 280 C 430 380 350 450 256 480 C 162 450 82 380 82 280 L 82 100 Z" fill="url(#navyGrad)"/>
  <path d="M 256 80 L 400 120 L 400 275 C 400 360 335 420 256 445 C 177 420 112 360 112 275 L 112 120 Z" fill="none" stroke="url(#orangeGrad)" stroke-width="12"/>
  <!-- Inner circle -->
  <circle cx="256" cy="270" r="100" fill="url(#orangeGrad)"/>
  <!-- Checkmark -->
  <path d="M 195 270 L 235 310 L 325 220" fill="none" stroke="white" stroke-width="28" stroke-linecap="round" stroke-linejoin="round"/>
</svg>
